<?xml version="1.0" encoding="utf-8"?>
<svg width="32px" height="32px" viewBox="0 0 32 32" version="1.1" xmlns:xlink="http://www.w3.org/1999/xlink" xmlns="http://www.w3.org/2000/svg">
  <path d="M16 32C24.8366 32 32 24.8366 32 16C32 7.16344 24.8366 0 16 0C7.16344 0 0 7.16344 0 16C0 24.8366 7.16344 32 16 32Z" fill="#B40000" stroke="none" />
  <path transform="translate(13.80273 3)" fill="#FFFFFF" d="M4.02832 6.79785L3.82422 17.8623L2.37402 17.8623L2.18066 6.79785L4.02832 6.79785ZM3.12598 22.3955Q2.63184 22.3955 2.28271 22.0518Q1.93359 21.708 1.93359 21.2139Q1.93359 20.7197 2.28271 20.3706Q2.63184 20.0215 3.12598 20.0215Q3.60938 20.0215 3.96387 20.3706Q4.31836 20.7197 4.31836 21.2139Q4.31836 21.708 3.96387 22.0518Q3.60938 22.3955 3.12598 22.3955Z" />
</svg>